<svg xmlns="http://www.w3.org/2000/svg" version="1.1" xmlns:xlink="http://www.w3.org/1999/xlink" xmlns:svgjs="http://svgjs.dev/svgjs" width="2000" height="1500" viewBox="0 0 2000 1500"><rect width="2000" height="1500" fill="#000000"></rect><g transform="matrix(0.75,0,0,0.75,249.090909090909,298.1333823336488)"><svg viewBox="0 0 396 239" data-background-color="#000000" preserveAspectRatio="xMidYMid meet" height="1207" width="2000" xmlns="http://www.w3.org/2000/svg" xmlns:xlink="http://www.w3.org/1999/xlink"><g id="tight-bounds" transform="matrix(1,0,0,1,0.2400000000000091,-0.20022466472471478)"><svg viewBox="0 0 395.52 239.40044932944943" height="239.40044932944943" width="395.52"><g><svg viewBox="0 0 395.52 239.40044932944943" height="239.40044932944943" width="395.52"><g transform="matrix(1,0,0,1,0,144.16823100291543)"><svg viewBox="0 0 395.52 95.23221832653398" height="95.23221832653398" width="395.52"><g id="textblocktransform"><svg viewBox="0 0 395.52 95.23221832653398" height="95.23221832653398" width="395.52" id="textblock"><g><svg viewBox="0 0 395.52 53.191791099669004" height="53.191791099669004" width="395.52"><g transform="matrix(1,0,0,1,0,0)"><svg width="395.52" viewBox="2 -42.3 407.82 54.849999999999994" height="53.191791099669004" data-palette-color="#ed1c24"><path d="M30.7-37.9L30.7-31.85 19.8-31.85 19.8 0 12.9 0 12.9-31.85 2-31.85 2-37.9 30.7-37.9ZM59.3-19.25Q62.55-18.2 64.32-15.95 66.1-13.7 66.1-10.45L66.1-10.45Q66.1-5.2 62.82-2.6 59.55 0 51.85 0L51.85 0 37.35 0 37.35-37.9 51.85-37.9Q58.8-37.9 61.7-35.35 64.6-32.8 64.6-27.75L64.6-27.75Q64.6-24.7 63.32-22.58 62.05-20.45 59.3-19.25L59.3-19.25ZM44.3-32.3L44.3-21.8 51.85-21.8Q57.55-21.8 57.55-27.15L57.55-27.15Q57.55-29.9 56.25-31.1 54.95-32.3 51.85-32.3L51.85-32.3 44.3-32.3ZM59.05-10.95Q59.05-13.7 57.25-14.95 55.45-16.2 51.85-16.2L51.85-16.2 44.3-16.2 44.3-5.6 51.85-5.6Q55.8-5.6 57.42-6.88 59.05-8.15 59.05-10.95L59.05-10.95ZM110.74-37.9L110.74-31.85 99.84-31.85 99.84 0 92.94 0 92.94-31.85 82.04-31.85 82.04-37.9 110.74-37.9ZM122.04-12.45Q122.84-4.85 130.44-4.85L130.44-4.85Q132.39-4.85 134.24-5.35 136.09-5.85 138.39-6.95L138.39-6.95 140.19-1.65Q137.79-0.3 135.29 0.28 132.79 0.85 129.64 0.85L129.64 0.85Q124.99 0.85 121.69-1.03 118.39-2.9 116.72-6.25 115.04-9.6 115.04-14.05L115.04-14.05Q115.04-18.7 116.79-22.03 118.54-25.35 121.54-27.05 124.54-28.75 128.24-28.75L128.24-28.75Q134.09-28.75 137.42-25.28 140.74-21.8 140.79-15.1L140.79-15.1 140.79-12.45 122.04-12.45ZM128.24-23.05Q123.34-23.05 122.29-17.65L122.29-17.65 133.74-17.65Q133.49-20.45 132.14-21.75 130.79-23.05 128.24-23.05L128.24-23.05ZM156.34-27.95Q161.29-27.95 163.86-26.48 166.44-25 167.29-22.53 168.14-20.05 168.14-16.3L168.14-16.3 168.14 0 161.44 0 161.44-2.55Q159.59-0.85 157.81-0.1 156.04 0.65 153.94 0.65L153.94 0.65Q149.54 0.65 146.86-1.88 144.19-4.4 144.19-8.8L144.19-8.8Q144.19-13.3 146.96-15.78 149.74-18.25 154.59-18.25L154.59-18.25Q158.54-18.25 161.44-16.7L161.44-16.7Q161.39-18.6 160.96-19.75 160.54-20.9 159.29-21.53 158.04-22.15 155.59-22.15L155.59-22.15 150.89-22.15 150.89-27.95 156.34-27.95ZM155.14-4.7Q158.19-4.7 161.44-7.5L161.44-7.5 161.44-11.9Q158.79-13.25 155.99-13.25L155.99-13.25Q153.79-13.25 152.39-12.23 150.99-11.2 150.99-8.9L150.99-8.9Q150.99-6.65 152.16-5.68 153.34-4.7 155.14-4.7L155.14-4.7ZM187.59 0.85Q180.84 0.8 177.26-3.13 173.69-7.05 173.69-14.05L173.69-14.05Q173.69-20.95 177.26-24.83 180.84-28.7 187.59-28.75L187.59-28.75Q189.99-28.75 191.71-28.45 193.44-28.15 195.29-27.4L195.29-27.4 195.29-21.15Q193.44-22.05 191.81-22.4 190.19-22.75 188.24-22.75L188.24-22.75Q180.64-22.7 180.64-14.1L180.64-14.1Q180.64-5.2 188.09-5.2L188.09-5.2Q191.69-5.2 195.44-7.35L195.44-7.35 197.39-1.75Q192.89 0.85 187.59 0.85L187.59 0.85ZM217.53-28.55Q222.93-28.55 225.56-25.8 228.18-23.05 228.18-16.85L228.18-16.85 228.18 0 221.48 0 221.48-16.85Q221.48-19.8 220.31-21.18 219.13-22.55 216.23-22.55L216.23-22.55Q212.83-22.55 209.38-19.6L209.38-19.6 209.38 0 202.68 0 202.68-42.3 209.38-42.3 209.38-25.35Q213.18-28.55 217.53-28.55L217.53-28.55ZM250.78-28.55Q256.18-28.55 258.81-25.8 261.43-23.05 261.43-16.85L261.43-16.85 261.43 0 254.73 0 254.73-16.85Q254.73-19.8 253.56-21.18 252.38-22.55 249.48-22.55L249.48-22.55Q246.08-22.55 242.63-19.6L242.63-19.6 242.63 0 235.93 0 235.93-27.95 242.63-27.95 242.63-25.35Q246.43-28.55 250.78-28.55L250.78-28.55ZM281.88 0.85Q277.23 0.85 273.98-1.1 270.73-3.05 269.1-6.43 267.48-9.8 267.48-14L267.48-14Q267.48-18.15 269.1-21.5 270.73-24.85 273.98-26.8 277.23-28.75 281.88-28.75L281.88-28.75Q286.48-28.75 289.7-26.8 292.93-24.85 294.55-21.5 296.18-18.15 296.18-14L296.18-14Q296.18-9.8 294.55-6.43 292.93-3.05 289.7-1.1 286.48 0.85 281.88 0.85L281.88 0.85ZM281.88-5Q285.43-5 287.33-7.43 289.23-9.85 289.23-14L289.23-14Q289.23-18.15 287.33-20.55 285.43-22.95 281.88-22.95L281.88-22.95Q278.28-22.95 276.35-20.55 274.43-18.15 274.43-14L274.43-14Q274.43-9.85 276.35-7.43 278.28-5 281.88-5L281.88-5ZM310.38 0.65Q306.28 0.65 304.38-1.07 302.48-2.8 302.48-6.4L302.48-6.4 302.48-42.3 309.18-42.3 309.18-8.6Q309.18-6.8 309.78-6.1 310.38-5.4 311.93-5.4L311.93-5.4Q313.48-5.4 314.68-5.7L314.68-5.7 314.68 0.1Q312.33 0.65 310.38 0.65L310.38 0.65ZM332.62 0.85Q327.97 0.85 324.72-1.1 321.47-3.05 319.85-6.43 318.22-9.8 318.22-14L318.22-14Q318.22-18.15 319.85-21.5 321.47-24.85 324.72-26.8 327.97-28.75 332.62-28.75L332.62-28.75Q337.22-28.75 340.45-26.8 343.67-24.85 345.3-21.5 346.92-18.15 346.92-14L346.92-14Q346.92-9.8 345.3-6.43 343.67-3.05 340.45-1.1 337.22 0.85 332.62 0.85L332.62 0.85ZM332.62-5Q336.17-5 338.07-7.43 339.97-9.85 339.97-14L339.97-14Q339.97-18.15 338.07-20.55 336.17-22.95 332.62-22.95L332.62-22.95Q329.02-22.95 327.1-20.55 325.17-18.15 325.17-14L325.17-14Q325.17-9.85 327.1-7.43 329.02-5 332.62-5L332.62-5ZM371.77-27.95L378.47-27.95 378.47 0.25Q378.47 5.85 375.42 9.2 372.37 12.55 365.97 12.55L365.97 12.55Q362.42 12.55 359.67 12.15 356.92 11.75 354.37 10.75L354.37 10.75 354.37 4.4Q356.82 5.45 359.35 5.98 361.87 6.5 363.92 6.5L363.92 6.5Q368.42 6.5 370.1 4.85 371.77 3.2 371.77-0.25L371.77-0.25 371.77-3.2Q367.97-0.15 363.97-0.15L363.97-0.15Q358.22-0.15 354.77-3.75 351.32-7.35 351.32-14.5L351.32-14.5Q351.32-19.15 352.95-22.35 354.57-25.55 357.42-27.15 360.27-28.75 363.97-28.75L363.97-28.75Q368.02-28.75 371.77-25.75L371.77-25.75 371.77-27.95ZM365.22-6.2Q368.57-6.2 371.77-8.75L371.77-8.75 371.77-20.2Q368.47-22.75 365.22-22.75L365.22-22.75Q361.82-22.75 360.07-20.6 358.32-18.45 358.32-14.5L358.32-14.5Q358.32-10.2 360.05-8.2 361.77-6.2 365.22-6.2L365.22-6.2ZM403.27-27.95L409.82-27.95 398.07 4.45Q396.92 7.65 395.64 9.38 394.37 11.1 392.64 11.83 390.92 12.55 388.27 12.55L388.27 12.55Q386.12 12.55 384.37 12L384.37 12 384.37 6.15Q385.62 6.5 387.27 6.5L387.27 6.5Q389.17 6.5 390.24 5.63 391.32 4.75 392.27 2.25L392.27 2.25 393.12 0 383.07-27.95 389.97-27.95 396.37-9.05 403.27-27.95Z" opacity="1" transform="matrix(1,0,0,1,0,0)" fill="#ed1c24" class="wordmark-text-0" data-fill-palette-color="primary" id="text-0"></path></svg></g></svg></g><g transform="matrix(1,0,0,1,0,65.74909637531447)"><svg viewBox="0 0 395.52 29.483121951219516" height="29.483121951219516" width="395.52"><g transform="matrix(1,0,0,1,0,0)"><svg width="395.52" viewBox="-2.65 -38.3 655.93 48.9" height="29.483121951219516" data-palette-color="#ffffff"><path d="M-2.65 0L-1.9-3 0.45-3 18.65-34.9 25.2-34.9 27.75-3 30.1-3 29.35 0 16.05 0 16.75-3 20.25-3 19.85-10.9 9-10.9 4.7-3 8.2-3 7.45 0-2.65 0ZM18.75-29.45L10.6-14 19.75-14 19.2-29.45 18.75-29.45ZM30.05 10.6L30.05 10.6Q27.15 10.6 25.65 9.4 24.15 8.2 24.15 6.35L24.15 6.35Q24.15 5.05 25.1 3.98 26.05 2.9 27.65 2.9L27.65 2.9Q29 2.9 29.82 3.7 30.65 4.5 30.65 5.7L30.65 5.7Q30.65 6.7 30.05 7.38 29.45 8.05 28.65 8.45L28.65 8.45 29.05 8.9Q30.7 8.9 31.8 8 32.9 7.1 33.5 4.75L33.5 4.75 40.45-23.05 36.25-23.05 37.05-26.2 41.3-26.2 41.85-28.5Q42.45-31.05 43.6-32.85 44.75-34.65 46.3-35.8 47.85-36.95 49.67-37.48 51.5-38 53.45-38L53.45-38Q56.4-38 57.92-36.77 59.45-35.55 59.45-33.75L59.45-33.75Q59.45-32.3 58.5-31.2 57.55-30.1 55.8-30.1L55.8-30.1Q54.45-30.1 53.62-30.83 52.8-31.55 52.8-32.8L52.8-32.8Q52.8-33.95 53.42-34.7 54.05-35.45 54.85-35.85L54.85-35.85 54.4-36.3Q52.75-36.3 51.62-35.4 50.5-34.5 49.95-32.15L49.95-32.15 48.45-26.2 53.8-26.2 53-23.05 47.7-23.05 41.6 1.1Q40.95 3.6 39.8 5.4 38.65 7.2 37.12 8.35 35.6 9.5 33.8 10.05 32 10.6 30.05 10.6ZM47.85 10.6L47.85 10.6Q44.95 10.6 43.45 9.4 41.95 8.2 41.95 6.35L41.95 6.35Q41.95 5.05 42.9 3.98 43.85 2.9 45.45 2.9L45.45 2.9Q46.8 2.9 47.62 3.7 48.45 4.5 48.45 5.7L48.45 5.7Q48.45 6.7 47.85 7.38 47.25 8.05 46.45 8.45L46.45 8.45 46.85 8.9Q48.5 8.9 49.6 8 50.7 7.1 51.3 4.75L51.3 4.75 58.25-23.05 54.05-23.05 54.85-26.2 59.1-26.2 59.65-28.5Q60.25-31.05 61.4-32.85 62.55-34.65 64.1-35.8 65.65-36.95 67.47-37.48 69.3-38 71.25-38L71.25-38Q74.2-38 75.72-36.77 77.25-35.55 77.25-33.75L77.25-33.75Q77.25-32.3 76.3-31.2 75.35-30.1 73.6-30.1L73.6-30.1Q72.25-30.1 71.42-30.83 70.6-31.55 70.6-32.8L70.6-32.8Q70.6-33.95 71.22-34.7 71.85-35.45 72.65-35.85L72.65-35.85 72.2-36.3Q70.55-36.3 69.42-35.4 68.3-34.5 67.75-32.15L67.75-32.15 66.25-26.2 71.6-26.2 70.8-23.05 65.5-23.05 59.4 1.1Q58.75 3.6 57.6 5.4 56.45 7.2 54.92 8.35 53.4 9.5 51.6 10.05 49.8 10.6 47.85 10.6ZM79.89-2.2L79.89-2.2Q81.84-2.2 83.07-3.8 84.29-5.4 84.94-8L84.94-8Q85.84-11.5 86.44-13.78 87.04-16.05 87.37-17.48 87.69-18.9 87.82-19.65 87.94-20.4 87.94-20.85L87.94-20.85Q87.94-22.15 87.27-23.08 86.59-24 85.04-24L85.04-24Q83.09-24 81.87-22.4 80.64-20.8 79.99-18.2L79.99-18.2Q79.09-14.7 78.49-12.43 77.89-10.15 77.57-8.72 77.24-7.3 77.12-6.55 76.99-5.8 76.99-5.35L76.99-5.35Q76.99-4.05 77.67-3.13 78.34-2.2 79.89-2.2ZM79.54 0.6L79.54 0.6Q74.99 0.6 72.67-2.02 70.34-4.65 70.34-9.2L70.34-9.2Q70.34-12.1 71.34-15.23 72.34-18.35 74.27-20.93 76.19-23.5 78.99-25.15 81.79-26.8 85.39-26.8L85.39-26.8Q89.94-26.8 92.27-24.18 94.59-21.55 94.59-17L94.59-17Q94.59-14.05 93.59-10.95 92.59-7.85 90.67-5.28 88.74-2.7 85.94-1.05 83.14 0.6 79.54 0.6ZM97.14 0L102.54-21.55 98.49-21.55 99.24-24.55 110.04-26.8 107.99-18.55 108.59-18.35Q110.29-22.65 112.12-24.73 113.94-26.8 116.79-26.8L116.79-26.8Q119.04-26.8 120.22-25.65 121.39-24.5 121.39-22.6L121.39-22.6Q121.39-21.7 121.12-20.9 120.84-20.1 120.29-19.45 119.74-18.8 118.97-18.43 118.19-18.05 117.24-18.05L117.24-18.05Q115.84-18.05 114.89-18.82 113.94-19.6 113.94-20.9L113.94-20.9Q113.94-21.65 114.27-22.45 114.59-23.25 115.09-23.75L115.09-23.75 114.74-24.1Q113.79-23.85 112.52-22.05 111.24-20.25 109.79-17.25L109.79-17.25Q108.49-14.6 107.44-11.5 106.39-8.4 105.54-4.9L105.54-4.9 104.34 0 97.14 0ZM126.59 0.6L126.59 0.6Q123.44 0.6 122.11-1.5 120.79-3.6 120.79-7.25L120.79-7.25Q120.79-9.35 121.21-11.63 121.64-13.9 122.41-16.07 123.19-18.25 124.34-20.2 125.49-22.15 126.94-23.63 128.39-25.1 130.11-25.95 131.84-26.8 133.84-26.8L133.84-26.8Q135.99-26.8 137.24-25.8 138.49-24.8 138.94-22.9L138.94-22.9 139.54-22.9 141.64-32.8 137.59-32.8 138.34-35.75 150.19-38 141.64-3.8 142.54-3.4 147.04-9.1 148.84-8.05 146.04-3.8Q144.49-1.45 142.96-0.43 141.44 0.6 139.84 0.6L139.84 0.6Q138.64 0.6 137.81 0.25 136.99-0.1 136.49-0.65 135.99-1.2 135.79-1.93 135.59-2.65 135.59-3.35L135.59-3.35Q135.59-4.1 135.74-4.93 135.89-5.75 136.04-6.3L136.04-6.3 136.24-7.1 135.64-7.2Q134.94-5.65 134.06-4.23 133.19-2.8 132.11-1.73 131.04-0.65 129.66-0.03 128.29 0.6 126.59 0.6ZM129.74-4L129.74-4Q130.94-4 132.21-5.3 133.49-6.6 134.56-8.53 135.64-10.45 136.46-12.6 137.29-14.75 137.69-16.4L137.69-16.4 138.04-17.85Q138.59-20.25 138.19-21.65 137.79-23.05 136.04-23.05L136.04-23.05Q134.29-23.05 132.56-21.1 130.84-19.15 129.59-14.7L129.59-14.7Q129.04-12.8 128.64-10.48 128.24-8.15 128.24-6.55L128.24-6.55Q128.24-5.4 128.56-4.7 128.89-4 129.74-4ZM156.04 0.6L156.04 0.6Q152.89 0.6 151.56-1.5 150.24-3.6 150.24-7.25L150.24-7.25Q150.24-9.35 150.64-11.63 151.04-13.9 151.84-16.07 152.64-18.25 153.79-20.2 154.94-22.15 156.39-23.63 157.84-25.1 159.61-25.95 161.39-26.8 163.44-26.8L163.44-26.8Q165.64-26.8 167.21-25.63 168.79-24.45 169.29-21.6L169.29-21.6 169.89-21.6 173.14-26.2 176.69-26.2 171.09-3.8 171.99-3.4 176.49-9.1 178.29-8.05 175.49-3.8Q173.94-1.45 172.41-0.43 170.89 0.6 169.29 0.6L169.29 0.6Q168.04 0.6 167.21 0.25 166.39-0.1 165.91-0.65 165.44-1.2 165.24-1.93 165.04-2.65 165.04-3.35L165.04-3.35Q165.04-4.1 165.19-4.93 165.34-5.75 165.49-6.3L165.49-6.3 165.69-7.1 165.09-7.2Q164.39-5.65 163.51-4.23 162.64-2.8 161.56-1.73 160.49-0.65 159.11-0.03 157.74 0.6 156.04 0.6ZM159.19-4L159.19-4Q160.39-4 161.66-5.3 162.94-6.6 164.01-8.5 165.09-10.4 165.91-12.55 166.74-14.7 167.14-16.4L167.14-16.4 167.49-17.85Q168.04-20.25 167.64-21.65 167.24-23.05 165.49-23.05L165.49-23.05Q163.74-23.05 162.01-21.1 160.29-19.15 159.04-14.7L159.04-14.7Q158.49-12.8 158.09-10.48 157.69-8.15 157.69-6.55L157.69-6.55Q157.69-5.4 158.01-4.7 158.34-4 159.19-4ZM192.23 0.6L192.23 0.6Q190.03 0.6 188.46-0.58 186.88-1.75 186.38-4.6L186.38-4.6 185.78-4.6 182.48 0 178.93 0 187.13-32.8 183.08-32.8 183.83-35.75 195.68-38 189.98-19.15 190.58-18.95Q191.28-20.5 192.13-21.93 192.98-23.35 194.08-24.43 195.18-25.5 196.53-26.15 197.88-26.8 199.63-26.8L199.63-26.8Q202.78-26.8 204.11-24.7 205.43-22.6 205.43-18.95L205.43-18.95Q205.43-15.75 204.51-12.3 203.58-8.85 201.88-5.98 200.18-3.1 197.73-1.25 195.28 0.6 192.23 0.6ZM190.18-3.15L190.18-3.15Q191.93-3.15 193.66-5.1 195.38-7.05 196.63-11.5L196.63-11.5Q197.18-13.4 197.58-15.73 197.98-18.05 197.98-19.65L197.98-19.65Q197.98-20.8 197.66-21.5 197.33-22.2 196.48-22.2L196.48-22.2Q195.28-22.2 194.01-20.9 192.73-19.6 191.66-17.7 190.58-15.8 189.73-13.65 188.88-11.5 188.53-9.8L188.53-9.8 188.18-8.35Q187.63-5.95 188.03-4.55 188.43-3.15 190.18-3.15ZM213.08 0.6L213.08 0.6Q211.73 0.6 210.81 0.25 209.88-0.1 209.33-0.7 208.78-1.3 208.53-2.02 208.28-2.75 208.28-3.5L208.28-3.5Q208.28-4.1 208.43-4.93 208.58-5.75 208.73-6.3L208.73-6.3 215.38-32.8 211.33-32.8 212.08-35.75 223.88-38 215.33-3.8 216.23-3.4 220.73-9.1 222.53-8.05 219.73-3.8Q217.98-1.15 216.26-0.28 214.53 0.6 213.08 0.6ZM231.88 0.6L231.88 0.6Q227.83 0.6 225.93-1.73 224.03-4.05 224.03-8.2L224.03-8.2Q224.03-11.15 224.9-14.43 225.78-17.7 227.58-20.45 229.38-23.2 232.2-25 235.03-26.8 238.93-26.8L238.93-26.8Q240.58-26.8 242-26.5 243.43-26.2 244.45-25.53 245.48-24.85 246.08-23.83 246.68-22.8 246.68-21.35L246.68-21.35Q246.68-20.2 246.08-18.82 245.48-17.45 243.88-16.23 242.28-15 239.48-14.08 236.68-13.15 232.23-12.9L232.23-12.9Q231.83-11.15 231.68-9.75 231.53-8.35 231.53-7.3L231.53-7.3Q231.53-5.15 232.33-4.25 233.13-3.35 234.58-3.35L234.58-3.35Q236.88-3.35 238.78-5.23 240.68-7.1 242.38-10.5L242.38-10.5 244.33-9.65Q243.18-7.25 241.98-5.35 240.78-3.45 239.3-2.13 237.83-0.8 236-0.1 234.18 0.6 231.88 0.6ZM232.73-14.95L232.73-14.95Q235.08-15.3 236.6-15.98 238.13-16.65 239.03-17.57 239.93-18.5 240.3-19.6 240.68-20.7 240.68-21.9L240.68-21.9Q240.68-22.95 240.15-23.55 239.63-24.15 238.58-24.15L238.58-24.15Q237.53-24.15 236.75-23.68 235.98-23.2 235.33-22.13 234.68-21.05 234.05-19.3 233.43-17.55 232.73-14.95ZM264.27 0.6L264.27 0.6Q261.12 0.6 259.8-1.5 258.47-3.6 258.47-7.25L258.47-7.25Q258.47-9.35 258.87-11.63 259.27-13.9 260.07-16.07 260.87-18.25 262.02-20.2 263.17-22.15 264.62-23.63 266.07-25.1 267.85-25.95 269.62-26.8 271.67-26.8L271.67-26.8Q273.87-26.8 275.45-25.63 277.02-24.45 277.52-21.6L277.52-21.6 278.12-21.6 281.37-26.2 284.92-26.2 279.32-3.8 280.22-3.4 284.72-9.1 286.52-8.05 283.72-3.8Q282.17-1.45 280.65-0.43 279.12 0.6 277.52 0.6L277.52 0.6Q276.27 0.6 275.45 0.25 274.62-0.1 274.15-0.65 273.67-1.2 273.47-1.93 273.27-2.65 273.27-3.35L273.27-3.35Q273.27-4.1 273.42-4.93 273.57-5.75 273.72-6.3L273.72-6.3 273.92-7.1 273.32-7.2Q272.62-5.65 271.75-4.23 270.87-2.8 269.8-1.73 268.72-0.65 267.35-0.03 265.97 0.6 264.27 0.6ZM267.42-4L267.42-4Q268.62-4 269.9-5.3 271.17-6.6 272.25-8.5 273.32-10.4 274.15-12.55 274.97-14.7 275.37-16.4L275.37-16.4 275.72-17.85Q276.27-20.25 275.87-21.65 275.47-23.05 273.72-23.05L273.72-23.05Q271.97-23.05 270.25-21.1 268.52-19.15 267.27-14.7L267.27-14.7Q266.72-12.8 266.32-10.48 265.92-8.15 265.92-6.55L265.92-6.55Q265.92-5.4 266.25-4.7 266.57-4 267.42-4ZM307.22 0.6L307.22 0.6Q305.87 0.6 304.97 0.23 304.07-0.15 303.52-0.73 302.97-1.3 302.75-2.02 302.52-2.75 302.52-3.45L302.52-3.45Q302.52-4.1 302.67-4.88 302.82-5.65 302.97-6.25L302.97-6.25 306.77-19.85Q306.92-20.45 306.92-20.9L306.92-20.9Q306.92-22.2 305.77-22.2L305.77-22.2Q304.72-22.2 303.47-21.05 302.22-19.9 300.95-17.8 299.67-15.7 298.52-12.8 297.37-9.9 296.47-6.4L296.47-6.4 294.87 0 287.67 0 293.07-21.55 289.02-21.55 289.77-24.55 300.87-26.8 298.87-18.75 299.47-18.55Q300.42-20.25 301.37-21.78 302.32-23.3 303.45-24.4 304.57-25.5 305.95-26.15 307.32-26.8 309.07-26.8L309.07-26.8Q311.77-26.8 312.97-25.38 314.17-23.95 314.17-21.55L314.17-21.55Q314.17-20.65 314-19.65 313.82-18.65 313.52-17.55L313.52-17.55 309.62-3.8 310.52-3.4 315.02-9.1 316.82-8.05 314.02-3.8Q312.42-1.4 310.77-0.4 309.12 0.6 307.22 0.6ZM324.32 0.6L324.32 0.6Q321.17 0.6 319.84-1.5 318.52-3.6 318.52-7.25L318.52-7.25Q318.52-9.35 318.94-11.63 319.37-13.9 320.14-16.07 320.92-18.25 322.07-20.2 323.22-22.15 324.67-23.63 326.12-25.1 327.84-25.95 329.57-26.8 331.57-26.8L331.57-26.8Q333.72-26.8 334.97-25.8 336.22-24.8 336.67-22.9L336.67-22.9 337.27-22.9 339.37-32.8 335.32-32.8 336.07-35.75 347.92-38 339.37-3.8 340.27-3.4 344.77-9.1 346.57-8.05 343.77-3.8Q342.22-1.45 340.69-0.43 339.17 0.6 337.57 0.6L337.57 0.6Q336.37 0.6 335.54 0.25 334.72-0.1 334.22-0.65 333.72-1.2 333.52-1.93 333.32-2.65 333.32-3.35L333.32-3.35Q333.32-4.1 333.47-4.93 333.62-5.75 333.77-6.3L333.77-6.3 333.97-7.1 333.37-7.2Q332.67-5.65 331.79-4.23 330.92-2.8 329.84-1.73 328.77-0.65 327.39-0.03 326.02 0.6 324.32 0.6ZM327.47-4L327.47-4Q328.67-4 329.94-5.3 331.22-6.6 332.29-8.53 333.37-10.45 334.19-12.6 335.02-14.75 335.42-16.4L335.42-16.4 335.77-17.85Q336.32-20.25 335.92-21.65 335.52-23.05 333.77-23.05L333.77-23.05Q332.02-23.05 330.29-21.1 328.57-19.15 327.32-14.7L327.32-14.7Q326.77-12.8 326.37-10.48 325.97-8.15 325.97-6.55L325.97-6.55Q325.97-5.4 326.29-4.7 326.62-4 327.47-4ZM355.56 0L356.31-3 359.46-3 366.66-31.9 363.51-31.9 364.26-34.9 378.21-34.9 377.46-31.9 374.31-31.9 371.21-19.55 382.91-19.55 386.01-31.9 382.86-31.9 383.61-34.9 397.56-34.9 396.81-31.9 393.66-31.9 386.46-3 389.61-3 388.86 0 374.91 0 375.66-3 378.81-3 382.11-16.25 370.41-16.25 367.11-3 370.26-3 369.51 0 355.56 0ZM400.61 0.6L400.61 0.6Q399.26 0.6 398.36 0.23 397.46-0.15 396.89-0.73 396.31-1.3 396.09-2.02 395.86-2.75 395.86-3.5L395.86-3.5Q395.86-4.1 396.01-4.93 396.16-5.75 396.31-6.3L396.31-6.3 400.11-21.55 396.06-21.55 396.81-24.55 408.66-26.8 402.91-3.8 403.81-3.4 408.31-9.1 410.11-8.05 407.31-3.8Q405.56-1.15 403.81-0.28 402.06 0.6 400.61 0.6ZM407.26-38.3L407.26-38.3Q409.11-38.3 410.09-37.35 411.06-36.4 411.06-35.1L411.06-35.1Q411.06-34.4 410.91-33.8L410.91-33.8Q410.51-32.2 409.26-31.3 408.01-30.4 406.26-30.4L406.26-30.4Q404.41-30.4 403.44-31.35 402.46-32.3 402.46-33.6L402.46-33.6Q402.46-34.3 402.61-34.9L402.61-34.9Q403.01-36.5 404.26-37.4 405.51-38.3 407.26-38.3ZM417.41 10.6L417.41 10.6Q414.26 10.6 412.13 10.18 410.01 9.75 408.68 9.05 407.36 8.35 406.81 7.43 406.26 6.5 406.26 5.45L406.26 5.45Q406.26 4.35 406.86 3.48 407.46 2.6 408.46 1.93 409.46 1.25 410.78 0.75 412.11 0.25 413.61-0.15L413.61-0.15 413.71-0.7Q412.41-1.4 411.88-2.3 411.36-3.2 411.36-4.35L411.36-4.35Q411.36-5.5 411.81-6.4 412.26-7.3 413.01-7.98 413.76-8.65 414.76-9.13 415.76-9.6 416.86-9.9L416.86-9.9 416.96-10.45Q415.51-11.25 414.56-12.7 413.61-14.15 413.61-16.3L413.61-16.3Q413.61-18.75 414.61-20.7 415.61-22.65 417.33-24 419.06-25.35 421.38-26.08 423.71-26.8 426.31-26.8L426.31-26.8Q428.66-26.8 430.51-26L430.51-26Q431.21-28.4 432.53-29.85 433.86-31.3 435.76-31.3L435.76-31.3Q437.21-31.3 438.06-30.6 438.91-29.9 438.91-28.65L438.91-28.65Q438.91-27.25 438.06-26.3 437.21-25.35 435.96-25.35L435.96-25.35Q433.86-25.35 433.31-27.55L433.31-27.55 432.96-27.55 432.06-25.15Q433.21-24.2 433.88-22.93 434.56-21.65 434.56-19.9L434.56-19.9Q434.56-17.45 433.56-15.53 432.56-13.6 430.83-12.25 429.11-10.9 426.81-10.18 424.51-9.45 421.91-9.45L421.91-9.45Q421.21-9.45 420.63-9.55 420.06-9.65 419.51-9.75L419.51-9.75Q418.36-9.5 417.71-9.08 417.06-8.65 417.06-7.9L417.06-7.9Q417.06-7.1 417.68-6.73 418.31-6.35 419.31-6L419.31-6 423.51-4.65Q425.76-3.9 427.33-3.2 428.91-2.5 429.91-1.7 430.91-0.9 431.36 0.1 431.81 1.1 431.81 2.4L431.81 2.4Q431.81 4.65 430.66 6.23 429.51 7.8 427.53 8.78 425.56 9.75 422.93 10.18 420.31 10.6 417.41 10.6ZM422.61-11.9L422.61-11.9Q423.56-11.9 424.23-12.3 424.91-12.7 425.38-13.38 425.86-14.05 426.18-14.93 426.51-15.8 426.76-16.75L426.76-16.75Q427.31-18.85 427.58-20.15 427.86-21.45 427.86-22.05L427.86-22.05Q427.86-23.1 427.31-23.73 426.76-24.35 425.56-24.35L425.56-24.35Q424.61-24.35 423.93-23.95 423.26-23.55 422.78-22.88 422.31-22.2 421.98-21.33 421.66-20.45 421.41-19.5L421.41-19.5Q420.86-17.4 420.58-16.1 420.31-14.8 420.31-14.2L420.31-14.2Q420.31-13.15 420.86-12.53 421.41-11.9 422.61-11.9ZM418.16 8.55L418.16 8.55Q419.61 8.55 420.91 8.35 422.21 8.15 423.16 7.7 424.11 7.25 424.66 6.58 425.21 5.9 425.21 4.95L425.21 4.95Q425.21 3.65 424.36 3.18 423.51 2.7 421.86 2.15L421.86 2.15 415.81 0.25Q413.86 1.1 412.51 2.2 411.16 3.3 411.16 4.85L411.16 4.85Q411.16 6.55 412.73 7.55 414.31 8.55 418.16 8.55ZM455.46 0.6L455.46 0.6Q454.11 0.6 453.21 0.23 452.31-0.15 451.76-0.73 451.21-1.3 450.98-2.02 450.76-2.75 450.76-3.45L450.76-3.45Q450.76-4.1 450.91-4.88 451.06-5.65 451.21-6.25L451.21-6.25 455.01-19.85Q455.16-20.45 455.16-20.9L455.16-20.9Q455.16-22.2 454.01-22.2L454.01-22.2Q452.96-22.2 451.71-21.05 450.46-19.9 449.18-17.82 447.91-15.75 446.76-12.83 445.61-9.9 444.71-6.4L444.71-6.4 443.11 0 435.91 0 444.11-32.8 440.06-32.8 440.81-35.75 452.66-38 447.11-18.75 447.71-18.55Q448.66-20.25 449.61-21.78 450.56-23.3 451.68-24.4 452.81-25.5 454.18-26.15 455.56-26.8 457.31-26.8L457.31-26.8Q460.01-26.8 461.21-25.38 462.41-23.95 462.41-21.55L462.41-21.55Q462.41-20.65 462.23-19.65 462.06-18.65 461.76-17.55L461.76-17.55 457.86-3.8 458.76-3.4 463.26-9.1 465.06-8.05 462.26-3.8Q460.66-1.4 459.01-0.4 457.36 0.6 455.46 0.6ZM467.65-12.85L468.85-17.65 482.55-17.65 481.35-12.85 467.65-12.85ZM492.05 10L492.75 7.05 497.15 7.05 501.55-7.05 500.95-7.25Q500.25-5.7 499.38-4.28 498.5-2.85 497.43-1.78 496.35-0.7 494.98-0.05 493.6 0.6 491.9 0.6L491.9 0.6Q488.75 0.6 487.43-1.5 486.1-3.6 486.1-7.25L486.1-7.25Q486.1-10.45 487.03-13.9 487.95-17.35 489.65-20.23 491.35-23.1 493.8-24.95 496.25-26.8 499.3-26.8L499.3-26.8Q501.5-26.8 503.08-25.63 504.65-24.45 505.15-21.6L505.15-21.6 505.75-21.6 509.05-26.2 512.6-26.2 504.3 7.05 507.4 7.05 506.7 10 492.05 10ZM495.05-4L495.05-4Q496.25-4 497.53-5.3 498.8-6.6 499.88-8.5 500.95-10.4 501.78-12.55 502.6-14.7 503-16.4L503-16.4 503.35-17.85Q503.9-20.25 503.5-21.65 503.1-23.05 501.35-23.05L501.35-23.05Q499.6-23.05 497.88-21.1 496.15-19.15 494.9-14.7L494.9-14.7Q494.35-12.8 493.95-10.48 493.55-8.15 493.55-6.55L493.55-6.55Q493.55-5.4 493.88-4.7 494.2-4 495.05-4ZM520.3 0.6L520.3 0.6Q517.6 0.6 516.4-0.83 515.2-2.25 515.2-4.65L515.2-4.65Q515.2-5.6 515.37-6.6 515.55-7.6 515.85-8.65L515.85-8.65 519.55-21.55 515.45-21.55 516.2-24.55 528.3-26.8 522.6-6.3Q522.45-5.7 522.45-5.25L522.45-5.25Q522.45-4 523.6-4L523.6-4Q524.65-4 525.9-5.15 527.15-6.3 528.42-8.38 529.7-10.45 530.85-13.35 532-16.25 532.9-19.8L532.9-19.8 534.5-26.2 541.7-26.2 536.1-3.8 537-3.4 541.5-9.1 543.3-8.05 540.5-3.8Q539.6-2.4 538.72-1.53 537.85-0.65 537.02-0.18 536.2 0.3 535.45 0.45 534.7 0.6 534 0.6L534 0.6Q532.75 0.6 531.92 0.25 531.1-0.1 530.62-0.68 530.15-1.25 529.95-1.95 529.75-2.65 529.75-3.35L529.75-3.35Q529.75-4.1 529.9-4.93 530.05-5.75 530.2-6.3L530.2-6.3 530.5-7.45 529.9-7.65Q528.95-5.9 528-4.4 527.05-2.9 525.92-1.8 524.8-0.7 523.42-0.05 522.05 0.6 520.3 0.6ZM550.64 0.6L550.64 0.6Q547.5 0.6 546.17-1.5 544.85-3.6 544.85-7.25L544.85-7.25Q544.85-9.35 545.25-11.63 545.64-13.9 546.45-16.07 547.25-18.25 548.39-20.2 549.54-22.15 551-23.63 552.45-25.1 554.22-25.95 556-26.8 558.04-26.8L558.04-26.8Q560.25-26.8 561.82-25.63 563.39-24.45 563.89-21.6L563.89-21.6 564.5-21.6 567.75-26.2 571.29-26.2 565.7-3.8 566.6-3.4 571.1-9.1 572.89-8.05 570.1-3.8Q568.54-1.45 567.02-0.43 565.5 0.6 563.89 0.6L563.89 0.6Q562.64 0.6 561.82 0.25 561-0.1 560.52-0.65 560.04-1.2 559.85-1.93 559.64-2.65 559.64-3.35L559.64-3.35Q559.64-4.1 559.79-4.93 559.95-5.75 560.1-6.3L560.1-6.3 560.29-7.1 559.7-7.2Q559-5.65 558.12-4.23 557.25-2.8 556.17-1.73 555.1-0.65 553.72-0.03 552.35 0.6 550.64 0.6ZM553.79-4L553.79-4Q555-4 556.27-5.3 557.54-6.6 558.62-8.5 559.7-10.4 560.52-12.55 561.35-14.7 561.75-16.4L561.75-16.4 562.1-17.85Q562.64-20.25 562.25-21.65 561.85-23.05 560.1-23.05L560.1-23.05Q558.35-23.05 556.62-21.1 554.89-19.15 553.64-14.7L553.64-14.7Q553.1-12.8 552.7-10.48 552.29-8.15 552.29-6.55L552.29-6.55Q552.29-5.4 552.62-4.7 552.95-4 553.79-4ZM579.34 0.6L579.34 0.6Q577.99 0.6 577.07 0.25 576.14-0.1 575.59-0.7 575.04-1.3 574.79-2.02 574.54-2.75 574.54-3.5L574.54-3.5Q574.54-4.1 574.69-4.93 574.84-5.75 574.99-6.3L574.99-6.3 581.64-32.8 577.59-32.8 578.34-35.75 590.14-38 581.59-3.8 582.49-3.4 586.99-9.1 588.79-8.05 585.99-3.8Q584.24-1.15 582.52-0.28 580.79 0.6 579.34 0.6ZM595.74 0.6L595.74 0.6Q594.39 0.6 593.49 0.23 592.59-0.15 592.01-0.73 591.44-1.3 591.21-2.02 590.99-2.75 590.99-3.5L590.99-3.5Q590.99-4.1 591.14-4.93 591.29-5.75 591.44-6.3L591.44-6.3 595.24-21.55 591.19-21.55 591.94-24.55 603.79-26.8 598.04-3.8 598.94-3.4 603.44-9.1 605.24-8.05 602.44-3.8Q600.69-1.15 598.94-0.28 597.19 0.6 595.74 0.6ZM602.39-38.3L602.39-38.3Q604.24-38.3 605.21-37.35 606.19-36.4 606.19-35.1L606.19-35.1Q606.19-34.4 606.04-33.8L606.04-33.8Q605.64-32.2 604.39-31.3 603.14-30.4 601.39-30.4L601.39-30.4Q599.54-30.4 598.56-31.35 597.59-32.3 597.59-33.6L597.59-33.6Q597.59-34.3 597.74-34.9L597.74-34.9Q598.14-36.5 599.39-37.4 600.64-38.3 602.39-38.3ZM612.69 0.6L612.69 0.6Q611.39 0.6 610.51 0.25 609.64-0.1 609.09-0.68 608.54-1.25 608.31-1.95 608.09-2.65 608.09-3.4L608.09-3.4Q608.09-4.1 608.24-4.93 608.39-5.75 608.54-6.3L608.54-6.3 612.69-23.05 608.49-23.05 609.29-26.2 611.04-26.2Q611.94-26.2 612.61-26.35 613.29-26.5 613.81-26.8 614.34-27.1 614.79-27.58 615.24-28.05 615.74-28.75L615.74-28.75 618.84-33.35 622.49-33.35 620.69-26.2 626.34-26.2 625.54-23.05 619.94-23.05 615.19-4.15 616.19-3.6 621.94-9.05 623.59-7.75 619.39-3.2Q618.29-2 617.39-1.25 616.49-0.5 615.71-0.1 614.94 0.3 614.19 0.45 613.44 0.6 612.69 0.6ZM625.58 10.6L625.58 10.6Q623.28 10.6 621.86 9.55 620.43 8.5 620.43 6.7L620.43 6.7Q620.43 5.25 621.38 4.1 622.33 2.95 624.13 2.95L624.13 2.95Q625.43 2.95 626.26 3.68 627.08 4.4 627.08 5.65L627.08 5.65Q627.08 6.4 626.78 7.15 626.48 7.9 625.98 8.3L625.98 8.3 626.33 8.6Q627.93 8.05 629.33 6.53 630.73 5 632.23 2L632.23 2 629.08-23.25 627.13-23.25 627.83-26.2 639.83-26.2 639.13-23.25 636.58-23.25 637.53-7.3 638.08-7.3 646.98-23.25 644.68-23.25 645.38-26.2 653.28-26.2 652.53-23.25 650.78-23.25 634.93 3Q633.63 5.15 632.38 6.6 631.13 8.05 629.98 8.95 628.83 9.85 627.73 10.23 626.63 10.6 625.58 10.6Z" opacity="1" transform="matrix(1,0,0,1,0,0)" fill="#ffffff" class="slogan-text-1" data-fill-palette-color="secondary" id="text-1"></path></svg></g></svg></g></svg></g></svg></g><g transform="matrix(1,0,0,1,103.54690055655621,0)"><svg viewBox="0 0 188.42619888688756 131.61092572726997" height="131.61092572726997" width="188.42619888688756"><g><svg xmlns="http://www.w3.org/2000/svg" xmlns:xlink="http://www.w3.org/1999/xlink" version="1.1" x="8" y="0" viewBox="1.32 12.844 97.359 74.313" enable-background="new 0 0 100 100" xml:space="preserve" height="131.61092572726997" width="172.42619888688756" class="icon-icon-0" data-fill-palette-color="accent" id="icon-0"><path fill="#ed1c24" d="M49.951 87.075c0.212-0.248 0.117-0.575-0.033-0.841C50.075 86.505 50.178 86.833 49.951 87.075z" data-fill-palette-color="accent"></path><path fill="#ed1c24" d="M64.521 86.734c-0.15 0.17-0.451 0.289-0.98 0.33-0.09 0.01-0.221 0.01-0.38 0.021-0.41 0.011-1.04 0.021-1.841 0.04-0.439 0-0.92 0-1.449 0.011-0.811 0-1.92 0-3.229 0.01-1.933 0.011-4.07 0.011-6.19 0.011-3.66 0-7.23-0.011-9.46-0.021-0.62 0-1.13-0.011-1.52-0.011-1.29-0.012-2.27-0.029-2.77-0.051-0.07 0-0.15 0-0.23-0.01-0.09-0.011-0.17-0.021-0.24-0.031-1.73-0.238-0.36-1.618-0.36-1.618s2.1-1.642 3.14-3.279c0 0 0.31-0.011 0.6-2.54 0.4-3.58 0.75-6.359 0.75-6.359h19.291c0 0 0.341 2.779 0.75 6.359 0.279 2.529 0.591 2.54 0.591 2.54 0.979 1.54 2.88 3.08 3.118 3.271 0.012 0 0.021 0.011 0.021 0.011s0.07 0.069 0.16 0.188C64.51 85.873 64.819 86.384 64.521 86.734z" data-fill-palette-color="accent"></path><path fill="#ed1c24" d="M49.901 85.83c0.064 0.078 0.135 0.179 0.197 0.289C50.036 86.011 49.965 85.91 49.901 85.83z" data-fill-palette-color="accent"></path><path fill="#ed1c24" d="M50.129 71.937c-3.169 0.013-44.547 0.144-46.563 0C1.471 71.79 1.32 69.691 1.32 69.691V14.744c0-1.797 2.245-1.9 2.245-1.9h46.116 0.639 46.113c0 0 2.246 0.103 2.246 1.9v54.948c0 0-0.15 2.099-2.246 2.245C94.463 72.078 54.797 71.951 50.129 71.937M94.898 16.541H5.213v50.756h89.686V16.541L94.898 16.541z" data-fill-palette-color="accent"></path></svg></g></svg></g><g><rect width="103.54690055655621" height="4.796890615296566" y="125.81403511197341" x="291.97309944344374" fill="#ed1c24" data-fill-palette-color="accent"></rect><rect width="103.54690055655621" height="4.796890615296566" y="125.81403511197341" x="0" fill="#ed1c24" data-fill-palette-color="accent"></rect><rect width="103.54690055655621" height="4.796890615296566" y="116.22025388138027" x="291.97309944344374" fill="#ed1c24" data-fill-palette-color="accent"></rect><rect width="103.54690055655621" height="4.796890615296566" y="116.22025388138027" x="0" fill="#ed1c24" data-fill-palette-color="accent"></rect></g></svg></g><defs></defs></svg><rect width="395.52" height="239.40044932944943" fill="none" stroke="none" visibility="hidden"></rect></g></svg></g></svg>